<svg width="727" height="1107" viewBox="0 0 727 1107" fill="none" xmlns="http://www.w3.org/2000/svg">
<path d="M260.507 604.527L272.007 674.527L368.507 558.527L592.007 275.527L664.507 167.027L650.507 128.027L604.507 103.527L571.507 112.527L419.007 310.027L265.007 498.527L260.507 604.527Z" fill="#FFFDFD" stroke="#191C1B" stroke-width="2"/>
<path d="M15.01 110.027C14.176 122.027 66.01 515.027 66.01 515.027L148.007 567.527L172.007 223.027L150.01 136.027L137.01 91.5268C137.01 91.5268 102.769 66.5776 78.01 68.0268C48.4913 69.7546 15.8439 98.0271 15.01 110.027Z" fill="white" stroke="#191C1B" stroke-width="30"/>
<path d="M348.507 76.0265C325.831 77.4663 297.507 96.5266 297.507 96.5266L287.007 99.0269L277.507 137.027L263.507 236.527L254.507 515.027L274.007 489.027L364.007 372.027L367.507 354.027C367.507 354.027 415.808 114.526 407.007 105.027C398.206 95.5269 376.225 74.2666 348.507 76.0265Z" fill="white" stroke="#191C1B" stroke-width="30"/>
<path d="M282.007 251.027L304.007 108.527L282.507 125.527L261.507 312.527L275.007 304.527L282.007 251.027Z" fill="#191C1B" stroke="#191C1B" stroke-width="2"/>
<path d="M261.007 172.527V650.027" stroke="#191C1B" stroke-width="30"/>
<path d="M57.5068 1030.53C61.5068 1039.03 61.8307 1045.01 68.0068 1052.03C70.9329 1055.35 76.5068 1059.53 76.5068 1059.53L93.0068 1075.53L119.007 1097.03C119.007 1097.03 130.236 1102.57 138.007 1104.03C146.642 1105.65 146.507 1106.53 160.507 1104.03C174.507 1101.53 209.007 1090.03 209.007 1090.03L235.007 1081.53C235.007 1081.53 245.746 1076.34 251.007 1071.03C255.658 1066.33 257.7 1063.01 260.507 1057.03C263.846 1049.91 265.507 1037.53 265.507 1037.53L271.507 884.027L275.007 742.027L265.507 650.527L119.007 537.027L80.0068 502.527L54.5068 513.027L52.5068 648.027V874.527C52.5068 874.527 53.5068 1022.03 57.5068 1030.53Z" fill="#191C1B" stroke="#191C1B"/>
<path d="M152.006 50.0208C148.007 61.5208 152.006 134.021 152.006 134.021L209.507 210.527L272.006 171.021C272.006 171.021 287.005 57.015 284.506 53.0208C282.007 49.0265 233.007 14.0266 215.006 15.0208C197.005 16.0149 156.005 38.5207 152.006 50.0208Z" fill="white" stroke="#191C1B" stroke-width="30"/>
<path d="M222.505 137.027C241.005 145.11 261.005 171.527 261.005 171.527L251.005 637.027L133.005 551.527C133.005 551.527 110.007 164.527 129.005 156.527C148.003 148.528 188.325 122.094 222.505 137.027Z" fill="white" stroke="#191C1B" stroke-width="30"/>
<path d="M389.507 318.026C389.507 318.026 551.507 106.527 556.507 102.026C561.507 97.5261 569.507 92.0266 575.007 89.0264C580.507 86.0261 593.507 84.5261 602.507 86.0264C611.507 87.5266 660.507 110.027 667.507 117.026C674.507 124.026 678.007 135.027 679.007 140.026C680.007 145.026 684.408 164.027 687.007 179.526C689.605 195.026 692.109 201.492 689.007 215.026C687.013 223.723 681.507 233.027 680.007 236.026C678.507 239.026 654.507 267.526 654.507 267.526L440.507 532.526C440.507 532.526 439.572 533.929 439.007 535.603C438.56 536.927 438.344 538.422 439.007 539.526C440.507 542.027 513.007 643.026 513.007 643.026L673.007 875.026C673.007 875.026 715.507 934.027 719.507 940.526C723.507 947.026 725.007 955.526 725.007 961.026C725.007 966.527 725.908 973.867 723.507 981.526C722.018 986.277 726.007 978.526 718.007 993.026C710.007 1007.53 685.007 1041.03 679.007 1045.53C673.007 1050.03 672.95 1050.91 668.507 1053.53C660.043 1058.5 654.507 1060.53 644.507 1061.03C634.507 1061.53 606.507 1062.03 593.007 1059.53C579.507 1057.03 575.779 1057.44 565.507 1053.53C557.263 1050.39 549.507 1047.03 545.507 1043.03C541.507 1039.03 509.007 988.026 509.007 988.026L426.507 859.026L356.507 746.526C356.507 746.526 321.507 691.527 320.507 690.026C319.507 688.526 319.007 687.943 316.507 687.526C314.007 687.11 274.507 742.526 274.507 742.526L265.007 651.026L278.507 640.026L318.507 590.026L383.507 507.526L467.507 402.026L541.007 311.026L599.007 238.026L646.507 178.026L653.007 168.526V149.526L649.507 140.026L641.007 133.526L620.507 123.026L601.007 115.026C601.007 115.026 595.507 113.526 593.007 113.526C590.507 113.526 586.007 113.526 582.507 115.526C579.007 117.526 567.007 132.526 567.007 132.526L527.007 185.526L486.007 237.526L448.007 289.026L375.507 380.526L389.507 318.026Z" fill="#191C1B"/>
<path d="M316.507 687.526C319.007 687.943 319.507 688.526 320.507 690.026C321.507 691.527 356.507 746.526 356.507 746.526L426.507 859.026L509.007 988.026C509.007 988.026 541.507 1039.03 545.507 1043.03C549.507 1047.03 557.263 1050.39 565.507 1053.53C575.779 1057.44 579.507 1057.03 593.007 1059.53C606.507 1062.03 634.507 1061.53 644.507 1061.03C654.507 1060.53 660.043 1058.5 668.507 1053.53C672.95 1050.91 673.007 1050.03 679.007 1045.53C685.007 1041.03 710.007 1007.53 718.007 993.026C726.007 978.526 722.018 986.277 723.507 981.526C725.908 973.867 725.007 966.527 725.007 961.026C725.007 955.526 723.507 947.026 719.507 940.526C715.507 934.027 673.007 875.026 673.007 875.026L513.007 643.026C513.007 643.026 440.507 542.027 439.007 539.526C438.344 538.422 438.56 536.927 439.007 535.603M316.507 687.526C314.007 687.11 274.507 742.526 274.507 742.526L265.007 651.026L278.507 640.026L318.507 590.026L383.507 507.526L467.507 402.026L541.007 311.026L599.007 238.026L646.507 178.026L653.007 168.526V149.526L649.507 140.026L641.007 133.526L620.507 123.026L601.007 115.026C601.007 115.026 595.507 113.526 593.007 113.526C590.507 113.526 586.007 113.526 582.507 115.526C579.007 117.526 567.007 132.526 567.007 132.526L527.007 185.526L486.007 237.526L448.007 289.026L375.507 380.526L389.507 318.026C389.507 318.026 551.507 106.527 556.507 102.026C561.507 97.5261 569.507 92.0266 575.007 89.0264C580.507 86.0261 593.507 84.5261 602.507 86.0264C611.507 87.5266 660.507 110.027 667.507 117.026C674.507 124.026 678.007 135.027 679.007 140.026C680.007 145.026 684.408 164.027 687.007 179.526C689.605 195.026 692.11 201.492 689.007 215.026C687.013 223.723 681.507 233.027 680.007 236.026C678.507 239.026 654.507 267.526 654.507 267.526L440.507 532.526C440.507 532.526 439.572 533.929 439.007 535.603M316.507 687.526L364.507 629.027L417.507 562.527L436.007 539.526L439.007 535.603" stroke="#191C1B" stroke-width="2"/>
<path d="M671.007 923.527L419.007 562.027L365.007 629.027L419.507 710.027L520.007 859.527L583.007 958.027L613.007 1005.03C613.007 1005.03 626.007 1024.53 628.007 1026.03C630.007 1027.53 634.324 1030.46 639.007 1031.53C643.386 1032.52 646.31 1033.12 650.507 1031.53C652.886 1030.62 653.007 1030.53 656.007 1028.03C659.007 1025.53 663.493 1020.57 668.007 1015.53C676.449 1006.1 681.111 1000.64 688.007 990.027C691.583 984.523 695.007 980.527 696.507 975.527C698.007 970.527 696.507 962.027 695.007 958.027C693.507 954.027 671.007 923.527 671.007 923.527Z" fill="white" stroke="#191C1B" stroke-width="2"/>
</svg>
